<?xml version="1.0" standalone="no"?>
<!DOCTYPE svg PUBLIC "-//W3C//DTD SVG 20010904//EN"
 "http://www.w3.org/TR/2001/REC-SVG-20010904/DTD/svg10.dtd">
<svg version="1.0" xmlns="http://www.w3.org/2000/svg"
 width="1024.000000pt" height="1024.000000pt" viewBox="0 0 1024.000000 1024.000000"
 preserveAspectRatio="xMidYMid meet">

<g transform="translate(0.000000,1024.000000) scale(0.100000,-0.100000)"
fill="#000000" stroke="none">
<path d="M8225 8900 c-342 -46 -740 -96 -1060 -135 -469 -56 -602 -74 -627
-85 l-23 -10 25 4 c14 3 108 14 210 26 326 37 686 79 1055 125 574 71 719 86
703 69 -7 -6 -145 -30 -248 -43 -36 -5 -95 -14 -133 -21 -45 -8 -71 -9 -80 -2
-7 6 -35 7 -72 2 -59 -7 -60 -7 -15 -10 l45 -2 -35 -8 c-20 -5 -58 -11 -85
-13 -28 -3 -84 -10 -125 -16 -41 -6 -102 -13 -135 -15 -33 -2 -211 -22 -395
-45 -184 -22 -415 -50 -514 -62 -193 -23 -258 -38 -321 -74 -55 -32 -128 -111
-161 -176 -28 -56 -84 -209 -89 -244 -1 -11 -5 -27 -8 -35 -5 -16 -104 -416
-131 -530 -39 -168 -46 -202 -66 -300 -11 -58 -28 -134 -37 -170 -8 -36 -28
-126 -43 -200 -16 -74 -60 -282 -99 -462 -39 -180 -80 -381 -91 -447 -11 -65
-43 -229 -71 -363 -28 -133 -59 -290 -70 -347 -10 -58 -23 -119 -28 -138 -5
-18 -7 -33 -4 -33 9 0 156 93 203 128 25 19 44 38 42 44 -1 5 1 7 6 4 5 -3 31
11 59 32 62 47 99 82 87 82 -5 1 5 7 21 14 43 20 255 209 255 228 0 5 -9 6
-20 3 -14 -4 -20 -2 -20 8 0 11 11 15 36 15 20 0 41 5 47 12 9 10 7 11 -10 5
-14 -4 -23 -2 -23 4 0 10 16 15 47 14 6 0 29 17 50 39 31 32 35 40 23 48 -12
8 -11 10 8 10 12 0 22 5 22 11 0 6 -7 9 -15 6 -8 -4 -17 -2 -20 3 -4 6 4 10
15 10 16 0 20 5 16 15 -7 20 4 19 19 -1 10 -14 18 -8 61 46 27 35 48 67 47 72
-2 4 4 8 12 8 8 0 15 4 15 10 0 5 7 18 15 27 8 10 51 63 97 118 101 122 243
310 292 387 20 31 40 59 46 63 5 3 10 15 10 26 0 10 6 19 14 19 17 0 77 72
212 255 53 72 151 185 217 253 122 124 264 248 273 240 2 -3 -20 -24 -50 -47
-61 -47 -232 -222 -285 -291 l-35 -45 39 35 c22 19 42 38 45 41 7 9 311 218
340 234 27 15 6 -2 -80 -65 -47 -35 -101 -77 -120 -93 -37 -32 -50 -63 -22
-52 13 5 13 2 -3 -15 -20 -22 -44 -28 -26 -6 8 10 9 16 1 21 -5 3 -10 0 -10
-8 0 -8 -7 -20 -15 -27 -8 -7 -13 -16 -10 -20 2 -4 -14 -22 -35 -39 -22 -18
-38 -36 -35 -40 5 -10 -19 -33 -27 -26 -2 3 -4 -4 -3 -15 1 -11 4 -23 8 -26 7
-7 -16 -23 -60 -43 -20 -9 -24 -16 -22 -37 0 -3 -23 -23 -51 -46 -28 -22 -55
-50 -61 -61 -13 -24 -6 -18 132 110 107 99 158 136 362 260 4 2 7 2 7 0 0 -6
-108 -77 -116 -77 -15 0 -154 -114 -214 -176 -51 -51 -59 -64 -40 -59 31 9 51
25 45 35 -3 4 3 14 13 21 15 13 16 12 3 -3 -18 -24 -12 -23 45 9 27 14 45 22
39 16 -17 -17 -130 -98 -137 -98 -4 0 -16 -9 -26 -20 -11 -11 -43 -38 -71 -60
-28 -22 -51 -44 -51 -49 0 -9 1 -9 70 46 99 77 66 34 -50 -66 -25 -21 -36 -34
-25 -28 11 6 40 29 65 52 79 71 110 88 55 30 l-50 -53 75 62 c41 34 109 84
150 111 41 27 80 54 87 59 7 6 15 11 18 11 4 0 22 12 40 26 19 14 47 27 62 29
16 2 39 6 53 9 18 5 16 2 -7 -9 -18 -8 -33 -22 -33 -30 0 -18 -42 -43 -48 -27
-11 34 -249 -126 -381 -255 -49 -48 -83 -70 -65 -41 4 7 3 8 -4 4 -6 -4 -9
-13 -5 -22 5 -13 9 -13 32 2 14 9 35 25 47 35 11 11 24 19 30 19 5 0 5 -4 -1
-8 -5 -4 -17 -16 -25 -26 -8 -11 17 3 55 31 67 48 225 139 225 130 0 -3 -33
-24 -72 -48 -40 -24 -113 -72 -161 -106 -94 -68 -111 -76 -81 -40 17 20 16 19
-11 -3 -49 -40 -51 -43 -27 -31 37 19 25 -4 -18 -34 -22 -15 -38 -30 -36 -33
3 -2 17 5 33 16 15 11 82 47 148 81 66 33 112 55 101 48 -10 -6 -40 -29 -67
-49 -92 -72 -218 -145 -149 -87 l25 21 -25 -15 c-14 -8 -24 -20 -23 -26 2 -5
-13 -20 -33 -32 -27 -16 -33 -24 -22 -31 9 -6 6 -7 -9 -3 -22 6 -35 -6 -40
-37 -2 -13 24 -3 110 41 140 73 265 125 336 140 82 17 71 7 -19 -18 -106 -29
-288 -116 -379 -180 -16 -11 -30 -18 -33 -15 -3 2 -11 -4 -19 -13 -13 -16 -12
-17 3 -5 11 9 18 10 23 2 3 -5 -5 -14 -19 -20 -14 -5 -26 -12 -26 -14 0 -6 23
0 55 15 111 48 154 66 244 100 57 21 106 37 108 35 4 -4 -54 -28 -217 -92 -87
-33 -107 -43 -172 -83 -39 -24 -47 -33 -25 -29 6 2 11 -3 9 -9 -3 -20 17 -16
108 21 56 22 86 40 91 54 6 14 14 19 28 15 12 -3 18 -9 15 -15 -7 -11 41 0 78
18 15 8 31 14 35 13 4 0 -19 -14 -52 -30 -33 -16 -52 -29 -42 -29 9 0 17 -4
17 -10 0 -5 -5 -10 -11 -10 -5 0 -7 -4 -4 -10 3 -5 27 -10 53 -10 34 0 43 -3
32 -10 -12 -8 -10 -10 10 -10 15 0 31 5 38 12 9 9 12 8 12 -5 0 -10 -8 -17
-20 -17 -14 0 -21 -9 -26 -35 -3 -20 -5 -38 -3 -40 2 -2 54 -8 114 -13 l110
-9 -125 -2 c-69 0 -140 -5 -157 -10 -18 -5 -35 -6 -38 -1 -3 4 5 10 18 14 20
5 22 10 19 42 l-4 36 -47 -5 c-75 -9 -284 -83 -404 -144 -62 -30 -125 -56
-142 -58 -19 -1 -29 -6 -27 -14 2 -9 -3 -11 -13 -7 -9 3 -13 2 -10 -4 4 -6 -6
-10 -22 -10 -21 0 -24 -3 -14 -9 12 -8 10 -12 -12 -22 -15 -7 -27 -16 -27 -20
0 -8 45 14 96 48 19 12 22 18 12 24 -7 5 -8 9 -3 9 6 0 16 -4 24 -9 11 -7 6
-13 -18 -26 -18 -9 -31 -19 -28 -21 3 -3 20 2 39 12 92 48 430 156 444 142 2
-3 -33 -14 -79 -25 -46 -12 -113 -33 -148 -48 -35 -14 -71 -28 -79 -30 -8 -2
-16 -4 -17 -5 -2 -2 -6 -3 -10 -4 -9 -3 -49 -19 -111 -47 -49 -22 -56 -23 -47
-9 3 6 1 10 -4 10 -6 0 -11 -4 -11 -8 0 -5 -10 -14 -22 -21 -16 -8 -17 -10 -4
-6 16 5 17 3 6 -10 -10 -12 -15 -13 -20 -4 -6 8 -22 4 -56 -14 -27 -15 -62
-31 -78 -37 -16 -6 -26 -13 -23 -16 2 -3 22 2 42 11 21 8 40 13 42 11 6 -6
-52 -36 -70 -36 -7 0 -22 -7 -33 -15 -18 -13 -18 -14 6 -8 14 3 68 24 120 45
52 22 114 46 137 55 29 10 40 19 36 29 -7 18 4 18 23 -1 19 -19 10 -35 -21
-35 -20 0 -196 -68 -300 -116 l-30 -14 29 7 c19 4 27 2 22 -5 -3 -5 -24 -13
-45 -17 -22 -3 -47 -13 -58 -20 -16 -12 -13 -13 22 -4 45 12 217 67 314 101
36 13 67 29 69 37 3 9 0 11 -8 6 -9 -6 -11 -4 -6 4 6 9 12 9 25 -3 13 -12 25
-13 47 -7 42 12 160 25 153 17 -4 -4 -36 -11 -72 -16 -35 -5 -78 -15 -93 -21
-16 -7 -35 -11 -42 -10 -7 1 -12 -2 -11 -6 3 -19 -2 -27 -10 -15 -6 10 -53 -2
-209 -53 -111 -37 -202 -69 -202 -72 0 -2 9 -1 20 2 11 4 20 2 20 -4 0 -6 -9
-11 -19 -11 -11 0 -22 -4 -25 -9 -7 -10 82 9 187 40 38 11 73 19 78 17 5 -2
-50 -20 -123 -41 -76 -22 -137 -45 -144 -55 -8 -10 -13 -12 -14 -4 0 6 -10 12
-22 11 -22 0 -22 -1 -3 -8 15 -6 3 -10 -44 -16 -39 -4 -70 -14 -81 -25 -10
-10 -24 -20 -31 -23 -10 -4 -9 -6 3 -6 9 -1 21 7 26 16 7 12 35 19 108 28 55
7 101 10 103 9 10 -9 -11 -14 -89 -20 -47 -3 -92 -10 -100 -14 -9 -5 3 -7 30
-5 l45 5 -45 -12 -45 -12 45 -7 c31 -5 22 -6 -30 -3 -50 2 -68 0 -55 -6 16 -7
12 -9 -20 -10 -22 0 -49 -8 -60 -16 -19 -16 -19 -16 7 -12 15 3 25 2 23 -3 -3
-4 -29 -11 -58 -15 -47 -7 -49 -8 -22 -14 29 -6 28 -6 -15 -14 l-45 -8 40 -13
40 -12 -48 3 c-27 1 -58 -1 -70 -6 -22 -9 -21 -9 3 -10 14 -1 34 -5 45 -10 13
-6 0 -8 -40 -4 -57 4 -59 4 -35 -11 25 -15 25 -15 -12 -9 -25 4 -38 2 -38 -5
0 -6 -3 -10 -7 -9 -5 1 -25 -1 -47 -6 -33 -6 -36 -9 -21 -20 15 -11 12 -14
-23 -24 -22 -7 -48 -10 -58 -6 -11 3 -8 -1 6 -10 20 -12 22 -15 7 -16 -10 0
-27 5 -38 10 -30 17 -22 2 9 -15 l27 -15 -30 5 c-16 3 -24 2 -17 -1 22 -10 12
-23 -15 -18 -15 3 -30 7 -35 10 -5 3 -7 0 -6 -7 3 -13 -57 -59 -76 -59 -6 0
-4 5 4 10 13 8 12 10 -2 10 -10 0 -18 -7 -18 -15 0 -8 5 -15 12 -15 6 0 3 -7
-8 -15 -10 -8 -15 -15 -10 -15 5 0 3 -7 -4 -15 -10 -12 -9 -16 4 -21 9 -3 16
-10 16 -15 0 -6 -9 -5 -20 1 -14 8 -20 8 -20 0 0 -6 7 -13 15 -16 8 -4 15 -11
15 -16 0 -6 -7 -5 -15 2 -9 7 -18 11 -20 8 -6 -6 -73 -270 -109 -428 -14 -63
-38 -158 -52 -210 -26 -97 -44 -171 -70 -295 -8 -38 -19 -88 -24 -110 -86
-368 -98 -411 -122 -464 -11 -25 -26 -64 -33 -86 -9 -29 -13 -34 -14 -17 -1
17 -6 22 -18 18 -105 -30 -303 -73 -416 -91 -146 -23 -316 -61 -367 -83 -58
-24 -70 -21 -244 68 -76 38 -148 70 -160 70 -12 0 -60 18 -105 40 -83 40 -136
50 -74 14 18 -11 33 -23 33 -27 0 -5 4 -5 10 -2 6 3 10 1 10 -5 0 -6 4 -9 9
-6 5 4 11 2 13 -2 6 -14 96 -72 113 -72 9 0 14 -4 11 -9 -7 -11 22 -23 36 -14
6 3 8 1 5 -4 -4 -6 0 -14 9 -17 8 -3 13 -2 10 3 -4 5 3 7 15 4 16 -4 17 -8 7
-14 -10 -7 -10 -9 2 -10 8 -1 21 -1 29 0 7 2 10 -2 7 -7 -5 -9 32 -33 119 -76
55 -27 101 -63 93 -72 -4 -3 -21 2 -40 11 -69 36 -366 208 -447 260 -46 30
-89 56 -94 58 -7 2 -14 110 -19 308 -4 167 -12 354 -18 414 -17 185 -43 395
-48 390 -3 -2 2 -64 9 -137 19 -180 19 -1071 1 -1208 -26 -191 -61 -290 -150
-422 -77 -112 -164 -188 -218 -188 -28 0 -13 48 46 144 203 329 230 463 230
1141 0 678 -67 1161 -236 1704 -51 164 -54 175 -39 198 9 13 20 21 25 18 13
-8 63 -120 95 -212 16 -46 30 -81 33 -79 4 5 -31 130 -53 186 -8 19 -17 46
-21 59 -7 28 -5 27 94 -14 59 -24 68 -26 113 -15 76 18 99 53 99 146 0 58 -3
74 -14 74 -12 0 -14 -15 -13 -71 2 -60 -1 -73 -17 -85 -26 -19 -26 -18 -74 14
-88 59 -184 214 -272 436 -64 163 -79 225 -87 361 -5 92 -3 116 11 143 9 18
21 32 26 32 6 0 25 -21 43 -47 17 -26 50 -66 71 -88 21 -22 55 -65 75 -95 31
-48 40 -55 69 -55 17 0 32 1 32 3 0 2 -16 34 -35 71 -52 99 -119 177 -188 222
-57 37 -66 39 -111 34 -27 -3 -58 -11 -68 -16 -25 -13 -55 -75 -63 -133 -8
-51 -12 -56 -140 -135 -30 -19 -54 -36 -52 -37 1 -1 42 17 92 42 49 24 92 40
96 36 10 -11 41 -186 37 -213 -2 -20 -15 -28 -78 -50 -100 -35 -134 -40 -154
-26 -24 18 -31 103 -12 157 15 46 6 39 -26 -19 -12 -21 -25 -31 -41 -31 -31 0
-129 -32 -161 -53 -29 -20 -55 -60 -33 -51 20 7 35 -15 52 -82 34 -133 35
-155 11 -179 -12 -12 -28 -24 -35 -26 -11 -4 -11 -10 -3 -24 6 -11 26 -51 44
-90 17 -38 36 -71 40 -73 4 -2 8 -10 8 -18 0 -7 30 -45 68 -84 77 -80 83 -82
202 -49 41 11 81 21 88 22 7 1 21 -20 31 -48 10 -27 28 -72 41 -100 13 -27 31
-72 42 -100 36 -95 40 -106 44 -102 6 6 -40 150 -75 234 -16 39 -32 85 -36
102 -6 28 -3 32 29 48 20 9 38 14 41 11 12 -12 115 -289 144 -389 77 -259 141
-624 173 -989 17 -188 16 -805 -1 -960 -32 -296 -97 -459 -249 -621 -122 -131
-254 -202 -574 -315 -208 -72 -224 -76 -313 -70 -214 14 -357 63 -461 159 -73
66 -73 111 1 157 l34 21 43 -25 c68 -40 173 -76 303 -104 106 -22 144 -25 320
-26 234 -1 304 11 429 74 76 37 157 102 202 160 10 14 -14 -6 -55 -44 -131
-122 -289 -176 -510 -176 -197 0 -481 59 -481 100 0 12 129 71 255 118 185 67
669 181 780 183 22 0 60 8 84 18 50 20 65 49 77 147 6 54 5 55 -18 50 -12 -3
-75 -12 -138 -21 -161 -22 -421 -78 -510 -111 -41 -14 -105 -42 -141 -60 -37
-18 -118 -51 -180 -73 -144 -49 -298 -117 -325 -142 -29 -27 -62 -24 -76 6
-18 40 4 95 67 158 60 63 126 99 272 153 54 19 109 40 123 46 50 20 107 37
220 66 114 29 164 40 415 86 158 29 135 33 -42 7 -255 -38 -432 -77 -653 -144
-63 -19 -137 -38 -164 -42 -27 -4 -44 -10 -38 -14 7 -4 -3 -12 -26 -20 -20 -8
-86 -36 -146 -63 -77 -35 -112 -46 -119 -39 -6 6 -16 11 -21 11 -6 0 -5 -4 3
-9 11 -7 9 -12 -10 -22 -13 -7 -26 -12 -29 -12 -3 0 -34 -13 -69 -29 -91 -41
-98 -30 -10 15 41 20 67 37 59 37 -27 0 -218 -98 -294 -150 -79 -55 -180 -152
-222 -214 -92 -135 -124 -311 -87 -472 24 -102 110 -224 213 -302 105 -79 295
-164 495 -221 690 -195 1773 -94 2431 229 195 95 323 199 408 333 37 58 66
142 66 194 0 18 3 33 6 33 3 0 56 -28 117 -62 240 -133 523 -277 727 -371 115
-52 195 -89 264 -122 198 -93 289 -135 293 -135 3 0 36 -16 75 -35 159 -80
361 -154 518 -190 30 -7 107 -27 170 -43 286 -77 550 -112 841 -112 282 0 482
29 703 101 211 69 311 140 372 265 40 80 51 141 36 194 l-10 35 -1 -46 c-2
-85 -45 -154 -141 -224 -59 -44 -195 -111 -275 -137 -182 -58 -406 -83 -524
-57 -52 11 -54 13 -95 114 -22 51 -40 70 -98 103 -87 49 -67 57 185 72 260 15
471 59 619 129 103 48 111 56 97 105 -6 20 -7 47 -3 59 5 12 7 28 6 35 -2 6 2
20 7 30 6 9 11 11 11 5 0 -7 10 -13 21 -13 20 0 52 -23 133 -94 16 -15 31 -24
33 -22 2 2 -12 36 -31 75 -35 69 -89 133 -151 178 l-30 22 90 0 c50 1 169 8
265 16 514 45 821 145 933 305 60 86 70 163 32 254 -17 41 -77 123 -113 154
-91 80 -284 179 -422 216 -30 8 -79 21 -109 30 -62 17 -57 7 9 -18 77 -30 114
-49 150 -77 19 -14 58 -38 86 -53 55 -28 117 -88 126 -121 3 -11 9 -28 13 -39
7 -16 5 -17 -15 -11 -13 4 -49 24 -79 43 -123 79 -312 148 -676 247 -244 67
-306 88 -319 108 -18 29 10 38 111 35 51 -2 89 0 85 4 -8 7 -215 50 -322 67
-144 22 -410 47 -462 42 -26 -2 -28 0 -28 33 0 29 -4 36 -20 36 -10 0 -24 -8
-29 -18 -21 -40 -129 -528 -118 -538 2 -2 9 6 16 19 7 13 22 29 33 36 20 13
20 12 13 -63 l-7 -76 35 0 c58 0 151 -35 204 -76 106 -83 248 -199 255 -209 5
-7 8 -6 8 1 0 6 -3 13 -6 17 -4 3 -8 24 -9 46 -6 76 -92 221 -131 221 -9 0
-14 5 -12 12 6 16 -48 62 -109 92 -28 14 -85 31 -127 37 -42 6 -76 16 -76 22
0 17 23 92 32 102 19 21 420 -18 708 -69 217 -39 541 -118 672 -165 65 -22
268 -122 268 -130 -1 -8 -85 -61 -125 -79 -16 -7 -73 -24 -125 -37 -81 -20
-154 -31 -375 -60 -16 -2 -127 -7 -245 -10 -118 -3 -216 -8 -218 -10 -3 -2 -1
-17 3 -32 7 -27 7 -28 16 -5 8 20 15 22 81 23 132 2 181 0 189 -8 5 -5 15 -33
23 -63 16 -58 22 -31 7 32 -8 36 -8 36 26 43 18 3 98 12 176 20 78 8 169 19
202 24 33 5 78 12 100 16 22 3 46 8 54 11 7 2 47 11 89 20 128 26 314 84 374
116 64 34 86 34 107 -3 39 -70 -44 -180 -191 -251 -80 -40 -242 -97 -343 -122
-124 -30 -412 -66 -532 -66 -39 0 -43 2 -43 25 0 14 -4 25 -10 25 -5 0 -10 -4
-10 -10 0 -6 -39 -10 -97 -10 l-97 0 54 -55 c30 -30 49 -55 43 -55 -18 0 -85
31 -155 71 -53 31 -67 45 -70 67 -4 26 -5 25 -26 -20 -31 -65 -40 -136 -18
-144 9 -3 23 0 32 7 21 17 40 -3 70 -77 28 -68 30 -104 10 -143 -21 -40 -83
-91 -109 -91 -35 1 -91 24 -132 56 -32 24 -49 29 -98 30 -36 1 -64 7 -73 16
-13 13 -11 19 16 53 16 21 30 39 30 41 0 2 -26 -9 -57 -23 -58 -27 -191 -44
-229 -29 -15 6 -13 11 13 39 50 53 99 131 113 181 17 61 9 303 -13 364 -27 78
-57 110 -110 122 -27 5 -52 8 -57 5 -4 -3 -11 -29 -15 -58 -12 -88 -61 -187
-86 -171 -4 2 -6 42 -4 87 l5 82 -29 -73 c-50 -126 -77 -139 -50 -24 46 188
254 1263 319 1647 23 132 63 353 90 490 69 346 114 565 269 1295 33 157 88
418 121 580 33 162 79 378 101 480 154 703 271 1289 290 1458 9 81 9 108 -4
162 -14 58 -14 63 0 45 8 -11 27 -45 41 -75 16 -35 27 -49 29 -38 6 26 -56
135 -95 168 -46 38 -124 76 -182 89 -67 15 -133 12 -365 -19z m-188 -86 c-3
-3 -12 -4 -19 -1 -8 3 -5 6 6 6 11 1 17 -2 13 -5z m130 -600 c-3 -3 -12 -4
-19 -1 -8 3 -5 6 6 6 11 1 17 -2 13 -5z m-79 -11 c-16 -2 -28 -9 -28 -14 0 -5
8 -9 17 -7 23 4 25 -49 3 -73 -28 -30 -50 -59 -44 -59 3 0 -2 -7 -10 -16 -9
-8 -16 -23 -16 -32 0 -15 -2 -15 -10 -2 -8 12 -10 9 -10 -12 0 -16 -4 -28 -10
-28 -5 0 -12 -11 -16 -25 -3 -13 -11 -23 -18 -22 -6 1 -10 -5 -8 -14 1 -9 -5
-20 -14 -23 -13 -5 -14 -9 -5 -20 9 -11 4 -22 -22 -50 -19 -20 -33 -36 -31
-36 2 0 -13 -17 -33 -38 -21 -21 -39 -45 -41 -53 -5 -19 -23 -40 -31 -35 -4 3
-16 -12 -26 -32 -21 -41 -50 -73 -59 -66 -3 2 -4 1 -1 -2 6 -9 -15 -47 -22
-40 -3 2 -17 -6 -32 -20 -14 -13 -34 -27 -43 -30 -9 -3 -15 -11 -12 -18 3 -7
-13 -24 -36 -40 -22 -14 -40 -31 -40 -37 0 -5 -4 -8 -9 -5 -4 3 -21 -10 -37
-29 -16 -19 -35 -35 -42 -35 -7 0 -16 -8 -19 -17 -10 -26 -52 -65 -62 -58 -5
3 -12 -4 -16 -14 -4 -14 -12 -18 -23 -14 -9 3 -14 3 -10 -2 9 -9 -16 -35 -34
-35 -7 0 -30 -16 -51 -35 -22 -21 -48 -35 -63 -35 -14 0 -22 -4 -19 -10 3 -5
1 -10 -5 -10 -6 0 -9 -4 -6 -9 4 -5 -3 -7 -14 -4 -10 3 -26 -2 -35 -11 -14
-13 -39 -19 -71 -15 -3 0 -14 -9 -24 -21 -10 -12 -21 -21 -24 -21 -31 4 -86
-1 -85 -6 3 -20 -2 -31 -17 -37 -8 -3 -12 -2 -9 4 3 5 -7 3 -22 -5 -15 -8 -38
-15 -50 -15 -34 0 -76 -22 -61 -32 9 -5 6 -8 -10 -8 -13 0 -21 -4 -18 -8 2 -4
-10 -9 -27 -10 -18 -2 -33 -7 -35 -12 -2 -6 -13 -10 -25 -10 -11 0 -28 -7 -38
-16 -9 -8 -26 -16 -38 -17 -11 -1 -21 -5 -21 -10 0 -5 -11 -6 -24 -3 -13 3
-26 2 -28 -3 -2 -5 -21 -11 -44 -14 -60 -9 -68 -11 -76 -22 -5 -6 -8 -6 -8 2
0 6 -9 9 -20 6 -11 -3 -17 -10 -14 -15 4 -6 -3 -5 -14 1 -16 8 -23 8 -29 -1
-4 -7 -19 -14 -33 -14 -32 -2 -278 -6 -307 -5 -34 1 -33 10 22 246 8 33 33
148 56 255 23 107 66 299 96 425 29 127 61 263 70 303 19 84 3 76 188 92 241
19 1017 90 1360 124 283 28 527 45 423 29z m-68 -227 c0 -3 -4 -8 -10 -11 -5
-3 -10 -1 -10 4 0 6 5 11 10 11 6 0 10 -2 10 -4z m-241 -499 c-2 -2 -21 -15
-41 -30 -21 -16 -38 -24 -38 -20 0 9 60 51 74 52 5 1 7 0 5 -2z m166 -49 c-2
-29 -35 -38 -35 -10 0 21 8 32 25 32 6 0 11 -10 10 -22z m-65 -18 c-8 -5 -19
-10 -25 -10 -5 0 -3 5 5 10 8 5 20 10 25 10 6 0 3 -5 -5 -10z m-110 -55 c0 -2
-10 -9 -22 -15 -22 -11 -22 -10 -4 4 21 17 26 19 26 11z m90 -65 c-8 -5 -19
-10 -25 -10 -5 0 -3 5 5 10 8 5 20 10 25 10 6 0 3 -5 -5 -10z m-120 -55 c0 -2
-10 -9 -22 -15 -22 -11 -22 -10 -4 4 21 17 26 19 26 11z m145 -25 c-27 -12
-43 -12 -25 0 8 5 22 9 30 9 10 0 8 -3 -5 -9z m-215 -18 c-87 -59 -194 -146
-252 -204 -38 -38 -73 -68 -80 -68 -6 0 -1 10 13 22 13 12 49 44 79 72 31 28
69 62 85 76 34 29 168 120 175 119 3 0 -6 -8 -20 -17z m168 1 c-5 -16 29 -52
56 -59 18 -4 24 -10 18 -16 -6 -6 -8 -26 -5 -45 5 -27 2 -38 -11 -45 -9 -5
-14 -13 -11 -19 4 -5 2 -9 -2 -9 -5 0 -19 18 -33 40 -27 44 -32 44 -103 8 -59
-29 -53 -16 8 20 49 29 53 35 49 62 -4 23 -1 30 10 30 9 0 16 5 16 10 0 15
-47 1 -110 -33 l-55 -30 28 27 c15 15 35 29 45 31 9 1 33 10 52 18 41 18 51
20 48 10z m-443 -193 c-10 -11 -23 -20 -29 -20 -6 0 0 9 14 20 32 25 38 25 15
0z m548 13 c-7 -2 -19 -2 -25 0 -7 3 -2 5 12 5 14 0 19 -2 13 -5z m-388 -13
c-3 -5 -11 -10 -16 -10 -6 0 -7 5 -4 10 3 6 11 10 16 10 6 0 7 -4 4 -10z m100
2 c-6 -5 -23 -18 -38 -29 -16 -13 -23 -24 -17 -28 15 -9 12 -25 -5 -25 -8 0
-15 7 -15 16 0 12 -17 6 -75 -25 -41 -23 -75 -40 -75 -38 0 8 214 135 230 137
2 0 0 -4 -5 -8z m-345 -186 c0 -3 -4 -8 -10 -11 -5 -3 -10 -1 -10 4 0 6 5 11
10 11 6 0 10 -2 10 -4z m349 -10 c-10 -9 -69 -36 -69 -32 0 7 52 35 64 36 5 0
7 -2 5 -4z m374 -27 c-6 -6 -18 -6 -28 -3 -18 7 -18 8 1 14 23 9 39 1 27 -11z
m-703 -34 c-7 -8 -18 -15 -24 -15 -6 0 -2 7 8 15 25 19 32 19 16 0z m220 0
c-14 -8 -29 -14 -35 -14 -5 0 1 6 15 14 14 8 30 14 35 14 6 0 -1 -6 -15 -14z
m680 5 c13 -8 13 -10 -2 -10 -9 0 -20 5 -23 10 -8 13 5 13 25 0z m-195 -28
c-3 -3 -11 0 -18 7 -9 10 -8 11 6 5 10 -3 15 -9 12 -12z m-5042 -93 c18 -251
132 -590 268 -798 l30 -46 -35 40 c-116 131 -276 510 -307 727 -12 79 -11 90
6 127 10 23 21 41 25 41 4 0 10 -41 13 -91z m4382 81 c-3 -5 -12 -10 -18 -10
-7 0 -6 4 3 10 19 12 23 12 15 0z m-435 -10 c0 -5 -2 -10 -4 -10 -3 0 -8 5
-11 10 -3 6 -1 10 4 10 6 0 11 -4 11 -10z m-792 -37 c-2 -10 -10 -18 -18 -18
-8 0 -16 8 -18 18 -2 12 3 17 18 17 15 0 20 -5 18 -17z m1382 -63 c-8 -5 -19
-10 -25 -10 -5 0 -3 5 5 10 8 5 20 10 25 10 6 0 3 -5 -5 -10z m268 -47 c-10
-2 -28 -2 -40 0 -13 2 -5 4 17 4 22 1 32 -1 23 -4z m85 -10 c-7 -2 -19 -2 -25
0 -7 3 -2 5 12 5 14 0 19 -2 13 -5z m-503 -7 c0 -2 -8 -10 -17 -17 -16 -13
-17 -12 -4 4 13 16 21 21 21 13z m-750 -36 c0 -5 -5 -10 -11 -10 -5 0 -7 5 -4
10 3 6 8 10 11 10 2 0 4 -4 4 -10z m710 5 c0 -2 -10 -9 -22 -15 -22 -11 -22
-10 -4 4 21 17 26 19 26 11z m730 -15 c22 -11 40 -22 40 -25 0 -7 -49 13 -73
30 -30 21 -13 19 33 -5z m195 10 c3 -6 -1 -7 -9 -4 -18 7 -21 14 -7 14 6 0 13
-4 16 -10z m-975 -24 c0 -3 -4 -8 -10 -11 -5 -3 -10 -1 -10 4 0 6 5 11 10 11
6 0 10 -2 10 -4z m120 -36 c0 -5 -4 -10 -10 -10 -5 0 -10 5 -10 10 0 6 5 10
10 10 6 0 10 -4 10 -10z m-185 -20 c-3 -5 -11 -10 -16 -10 -6 0 -7 5 -4 10 3
6 11 10 16 10 6 0 7 -4 4 -10z m245 -20 c-8 -5 -22 -10 -30 -10 -13 0 -13 1 0
10 8 5 22 10 30 10 13 0 13 -1 0 -10z m-1515 -170 c-14 -6 -15 -9 -5 -10 10
-1 7 -5 -8 -12 -17 -8 -26 -8 -34 0 -9 9 -9 12 1 12 7 0 9 5 6 10 -4 6 7 10
27 9 27 0 30 -2 13 -9z m162 -52 c-3 -8 -6 -5 -6 6 -1 11 2 17 5 13 3 -3 4
-12 1 -19z m1370 -14 c-3 -3 -12 -4 -19 -1 -8 3 -5 6 6 6 11 1 17 -2 13 -5z
m688 -102 c-3 -3 -11 0 -18 7 -9 10 -8 11 6 5 10 -3 15 -9 12 -12z m-542 -19
c-7 -2 -19 -2 -25 0 -7 3 -2 5 12 5 14 0 19 -2 13 -5z m-398 -13 c-16 -4 -39
-8 -50 -8 -16 0 -15 2 5 8 14 4 36 8 50 8 22 0 22 -1 -5 -8z m-1145 -30 c0 -5
-4 -10 -9 -10 -6 0 -13 5 -16 10 -3 6 1 10 9 10 9 0 16 -4 16 -10z m40 -6 c0
-2 -7 -4 -15 -4 -8 0 -15 4 -15 10 0 5 7 7 15 4 8 -4 15 -8 15 -10z m1455 -43
c0 -6 6 -15 13 -20 26 -16 -20 -18 -103 -5 l-80 12 73 1 c39 1 71 4 71 9 -3
17 2 23 14 20 6 -3 12 -10 12 -17z m-1848 -17 c-3 -3 -12 -4 -19 -1 -8 3 -5 6
6 6 11 1 17 -2 13 -5z m1673 2 c-3 -2 -25 -6 -49 -9 -24 -2 -47 -10 -52 -18
-6 -10 -9 -10 -9 -1 0 8 -17 12 -47 13 -46 2 -46 2 -13 8 43 8 176 14 170 7z
m-285 -32 c-38 -8 -77 -13 -85 -11 -22 5 69 25 115 25 32 0 26 -3 -30 -14z
m-108 -20 c-3 -3 -12 -4 -19 -1 -8 3 -5 6 6 6 11 1 17 -2 13 -5z m-39 -9 c-3
-3 -18 -8 -34 -11 -15 -3 -31 -7 -36 -10 -4 -3 -8 -1 -8 5 0 9 24 17 64 20 11
0 17 -1 14 -4z m-88 -19 c0 -3 -4 -8 -10 -11 -5 -3 -10 -1 -10 4 0 6 5 11 10
11 6 0 10 -2 10 -4z m-60 -25 c-19 -10 -39 -15 -44 -13 -12 7 35 31 59 31 14
0 10 -5 -15 -18z m1295 9 c3 -5 1 -10 -4 -10 -6 0 -11 5 -11 10 0 6 2 10 4 10
3 0 8 -4 11 -10z m-807 -17 c-69 -3 -78 -6 -78 -23 0 -10 -5 -22 -10 -25 -7
-4 -9 2 -5 18 6 21 3 26 -17 30 -12 2 24 4 82 4 86 -1 91 -2 28 -4z m-171 -9
c-3 -3 -12 -4 -19 -1 -8 3 -5 6 6 6 11 1 17 -2 13 -5z m-561 -29 c-8 -8 -20
-15 -27 -15 -9 0 -8 4 1 15 7 8 19 15 27 15 12 0 12 -2 -1 -15z m-436 -20 c0
-8 -4 -15 -10 -15 -5 0 -7 7 -4 15 4 8 8 15 10 15 2 0 4 -7 4 -15z m65 -5 c3
-6 -4 -10 -17 -10 -18 0 -20 2 -8 10 19 12 18 12 25 0z m-100 -30 c3 -5 1 -10
-4 -10 -6 0 -11 5 -11 10 0 6 2 10 4 10 3 0 8 -4 11 -10z m35 -10 c0 -5 -2
-10 -4 -10 -3 0 -8 5 -11 10 -3 6 -1 10 4 10 6 0 11 -4 11 -10z m960 0 c0 -5
-21 -9 -47 -8 l-48 1 45 7 c25 4 46 8 48 8 1 1 2 -2 2 -8z m126 3 c-10 -10
-116 -11 -116 -1 0 4 28 8 62 8 34 0 58 -3 54 -7z m-248 -20 c-10 -2 -26 -2
-35 0 -10 3 -2 5 17 5 19 0 27 -2 18 -5z m-881 -25 c-3 -8 -6 -5 -6 6 -1 11 2
17 5 13 3 -3 4 -12 1 -19z m773 12 c0 -5 -13 -10 -29 -10 -32 0 -49 -15 -29
-24 7 -3 0 -4 -17 0 -16 3 -41 5 -55 5 -43 -1 -1 16 60 24 30 4 57 9 59 11 7
7 11 5 11 -6z m-163 -36 c-3 -3 -12 -4 -19 -1 -8 3 -5 6 6 6 11 1 17 -2 13 -5z
m-40 -10 c-3 -3 -12 -4 -19 -1 -8 3 -5 6 6 6 11 1 17 -2 13 -5z m1041 -14 c-7
-10 -14 -18 -15 -16 -6 6 9 36 18 36 5 0 4 -9 -3 -20z m-1081 4 c-3 -3 -12 -4
-19 -1 -8 3 -5 6 6 6 11 1 17 -2 13 -5z m440 -20 c-3 -3 -12 -4 -19 -1 -8 3
-5 6 6 6 11 1 17 -2 13 -5z m141 -1 c-27 -3 -38 -9 -38 -21 0 -15 -1 -15 -12
0 -7 9 -26 19 -43 21 -16 2 6 4 50 4 44 0 63 -2 43 -4z m-439 -17 c-2 -2 -29
-6 -59 -9 -62 -7 -56 -1 11 11 41 8 58 7 48 -2z m79 7 c-10 -2 -28 -2 -40 0
-13 2 -5 4 17 4 22 1 32 -1 23 -4z m559 -9 c-3 -3 -12 -4 -19 -1 -8 3 -5 6 6
6 11 1 17 -2 13 -5z m668 -4 c3 -5 2 -10 -4 -10 -5 0 -13 5 -16 10 -3 6 -2 10
4 10 5 0 13 -4 16 -10z m-602 -7 c-7 -2 -19 -2 -25 0 -7 3 -2 5 12 5 14 0 19
-2 13 -5z m-830 -10 c-7 -2 -19 -2 -25 0 -7 3 -2 5 12 5 14 0 19 -2 13 -5z
m880 0 c-7 -2 -19 -2 -25 0 -7 3 -2 5 12 5 14 0 19 -2 13 -5z m-926 -9 c-3 -3
-12 -4 -19 -1 -8 3 -5 6 6 6 11 1 17 -2 13 -5z m1093 -19 c0 -7 6 -16 13 -19
13 -6 -13 0 -83 21 l-45 13 48 -6 c31 -3 47 -2 47 6 0 6 5 8 10 5 6 -3 10 -12
10 -20z m-1694 -7 c-18 -10 -39 -2 -31 12 3 4 15 6 26 3 19 -5 19 -7 5 -15z
m551 16 c-3 -3 -12 -4 -19 -1 -8 3 -5 6 6 6 11 1 17 -2 13 -5z m-52 -14 c-11
-5 -27 -9 -35 -9 -9 0 -8 4 5 9 11 5 27 9 35 9 9 0 8 -4 -5 -9z m1520 -40 c3
-5 -10 -1 -29 11 -20 12 -36 23 -36 25 0 7 58 -25 65 -36z m-1582 23 c-7 -2
-19 -2 -25 0 -7 3 -2 5 12 5 14 0 19 -2 13 -5z m366 -7 c-9 -8 -99 -13 -99 -5
0 5 23 9 52 9 28 0 49 -2 47 -4z m259 -3 c-15 -2 -42 -2 -60 0 -18 2 -6 4 27
4 33 0 48 -2 33 -4z m-368 -7 c0 -2 -18 -6 -40 -8 -22 -2 -40 0 -40 4 0 5 18
8 40 8 22 0 40 -2 40 -4z m616 -12 c25 -5 31 -10 27 -25 -6 -22 -33 -26 -33
-4 0 16 -14 21 -105 35 l-60 9 70 -5 c39 -2 84 -7 101 -10z m-713 -1 c-7 -2
-19 -2 -25 0 -7 3 -2 5 12 5 14 0 19 -2 13 -5z m-45 -8 c-5 -5 -28 -9 -123
-18 l-60 -7 55 14 c55 13 138 20 128 11z m967 -35 c13 -6 15 -9 5 -9 -8 0 -22
4 -30 9 -18 12 -2 12 25 0z m-772 -17 c-24 -2 -62 -2 -85 0 -24 2 -5 4 42 4
47 0 66 -2 43 -4z m824 1 c-3 -3 -12 -4 -19 -1 -8 3 -5 6 6 6 11 1 17 -2 13
-5z m-1078 -18 c-9 -8 -89 -13 -89 -6 0 5 19 10 43 12 41 3 54 1 46 -6z m46 4
c-27 -12 -35 -12 -35 0 0 6 12 10 28 9 24 0 25 -1 7 -9z m58 3 c-7 -2 -19 -2
-25 0 -7 3 -2 5 12 5 14 0 19 -2 13 -5z m502 -3 c19 -5 6 -6 -35 -3 -36 3 -67
7 -69 9 -8 7 73 2 104 -6z m-722 -17 c-7 -2 -21 -2 -30 0 -10 3 -4 5 12 5 17
0 24 -2 18 -5z m1650 -42 c7 -8 -7 -2 -30 14 -24 15 -43 30 -43 32 0 7 61 -31
73 -46z m-1840 32 c-13 -2 -33 -2 -45 0 -13 2 -3 4 22 4 25 0 35 -2 23 -4z
m582 -33 c4 -6 -10 -10 -34 -10 -23 0 -41 5 -41 10 0 6 15 10 34 10 19 0 38
-4 41 -10z m-1008 -6 c-3 -3 -12 -4 -19 -1 -8 3 -5 6 6 6 11 1 17 -2 13 -5z
m668 -4 c4 -6 -9 -10 -32 -9 -34 1 -35 2 -13 9 35 11 38 11 45 0z m89 -5 c-4
-8 -10 -15 -15 -15 -5 0 -9 7 -9 15 0 8 7 15 15 15 9 0 12 -6 9 -15z m-197 -1
c-3 -3 -12 -4 -19 -1 -8 3 -5 6 6 6 11 1 17 -2 13 -5z m-97 -38 c0 -11 -19
-15 -25 -6 -3 5 1 10 9 10 9 0 16 -2 16 -4z m150 -10 c0 -8 -51 -13 -56 -5 -3
5 9 9 25 9 17 0 31 -2 31 -4z m63 -3 c-7 -2 -19 -2 -25 0 -7 3 -2 5 12 5 14 0
19 -2 13 -5z m67 -2 c0 -5 -9 -7 -20 -4 -11 3 -20 7 -20 9 0 2 9 4 20 4 11 0
20 -4 20 -9z m-415 -11 c3 -5 -1 -10 -10 -10 -9 0 -13 5 -10 10 3 6 8 10 10
10 2 0 7 -4 10 -10z m638 3 c-7 -2 -19 -2 -25 0 -7 3 -2 5 12 5 14 0 19 -2 13
-5z m-780 -20 c-7 -2 -19 -2 -25 0 -7 3 -2 5 12 5 14 0 19 -2 13 -5z m190 0
c-7 -2 -19 -2 -25 0 -7 3 -2 5 12 5 14 0 19 -2 13 -5z m70 -10 c-7 -2 -19 -2
-25 0 -7 3 -2 5 12 5 14 0 19 -2 13 -5z m107 -9 c0 -2 -19 -3 -42 -3 -39 1
-41 2 -13 8 28 7 55 4 55 -5z m-525 -4 c13 -6 15 -9 5 -9 -8 0 -22 4 -30 9
-18 12 -2 12 25 0z m610 0 c3 -5 1 -10 -4 -10 -6 0 -11 5 -11 10 0 6 2 10 4
10 3 0 8 -4 11 -10z m130 -10 c4 -6 -5 -10 -19 -10 -14 0 -26 5 -26 10 0 6 9
10 19 10 11 0 23 -4 26 -10z m-645 -10 c18 -12 2 -12 -25 0 -13 6 -15 9 -5 9
8 0 22 -4 30 -9z m-84 -16 c18 -14 18 -14 -6 -3 -31 14 -36 19 -24 19 6 0 19
-7 30 -16z m344 6 c0 -5 -2 -10 -4 -10 -3 0 -8 5 -11 10 -3 6 -1 10 4 10 6 0
11 -4 11 -10z m525 0 c-3 -5 -10 -10 -16 -10 -5 0 -9 5 -9 10 0 6 7 10 16 10
8 0 12 -4 9 -10z m-385 -28 c-25 -4 -35 2 -26 17 5 7 13 7 27 -2 20 -12 20
-12 -1 -15z m-464 -13 c3 -5 -7 -4 -23 3 -41 17 -53 30 -15 17 18 -6 35 -15
38 -20z m-61 1 c53 -25 30 -26 -26 0 -24 11 -37 20 -29 19 8 0 33 -8 55 -19z
m325 -5 c14 -16 10 -18 -14 -9 -9 3 -16 10 -16 15 0 14 16 11 30 -6z m1900
-40 c0 -3 -22 6 -50 20 -27 14 -50 28 -50 30 0 3 23 -6 50 -20 28 -14 50 -28
50 -30z m-2285 7 c-3 -3 -11 0 -18 7 -9 10 -8 11 6 5 10 -3 15 -9 12 -12z
m985 2 c0 -2 -7 -4 -15 -4 -8 0 -15 4 -15 10 0 5 7 7 15 4 8 -4 15 -8 15 -10z
m-475 -34 c3 -5 1 -10 -4 -10 -6 0 -11 5 -11 10 0 6 2 10 4 10 3 0 8 -4 11
-10z m1010 1 c3 -5 1 -12 -4 -15 -5 -3 -11 1 -15 9 -6 16 9 21 19 6z m300 -9
c-3 -3 -11 0 -18 7 -9 10 -8 11 6 5 10 -3 15 -9 12 -12z m-1230 -12 c3 -5 1
-10 -4 -10 -6 0 -11 5 -11 10 0 6 2 10 4 10 3 0 8 -4 11 -10z m325 -6 c0 -2
-13 -4 -30 -4 -16 0 -30 4 -30 8 0 5 14 7 30 4 17 -2 30 -6 30 -8z m44 0 c23
-9 20 -23 -4 -17 -11 3 -20 9 -20 14 0 11 3 11 24 3z m-507 -10 c-3 -3 -12 -4
-19 -1 -8 3 -5 6 6 6 11 1 17 -2 13 -5z m1813 -14 c8 -5 11 -10 5 -10 -5 0
-17 5 -25 10 -8 5 -10 10 -5 10 6 0 17 -5 25 -10z m-1910 -10 c0 -5 -4 -10 -9
-10 -6 0 -13 5 -16 10 -3 6 1 10 9 10 9 0 16 -4 16 -10z m515 -38 c-3 -3 -11
0 -18 7 -9 10 -8 11 6 5 10 -3 15 -9 12 -12z m1375 -33 c18 -11 -34 -1 -65 13
-13 5 -9 6 15 2 19 -4 42 -10 50 -15z m-1865 -9 c3 -6 -1 -7 -9 -4 -18 7 -21
14 -7 14 6 0 13 -4 16 -10z m-620 -40 c3 -6 -1 -7 -9 -4 -18 7 -21 14 -7 14 6
0 13 -4 16 -10z m2292 4 c-3 -3 -12 -4 -19 -1 -8 3 -5 6 6 6 11 1 17 -2 13 -5z
m-2291 -41 c-6 -6 -36 9 -36 18 0 5 9 4 20 -3 10 -7 18 -14 16 -15z m2401 21
c-3 -3 -12 -4 -19 -1 -8 3 -5 6 6 6 11 1 17 -2 13 -5z m-1778 -31 c2 -2 -3 -3
-11 -3 -9 0 -19 7 -22 16 -6 15 -4 15 11 3 10 -7 20 -15 22 -16z m1834 20 c-7
-2 -19 -2 -25 0 -7 3 -2 5 12 5 14 0 19 -2 13 -5z m-2243 -23 c0 -5 -4 -10
-10 -10 -5 0 -10 5 -10 10 0 6 5 10 10 10 6 0 10 -4 10 -10z m1575 -10 c4 -7
-3 -8 -22 -4 -38 9 -42 14 -10 14 14 0 29 -5 32 -10z m458 -7 c-7 -2 -19 -2
-25 0 -7 3 -2 5 12 5 14 0 19 -2 13 -5z m54 -9 c-3 -3 -12 -4 -19 -1 -8 3 -5
6 6 6 11 1 17 -2 13 -5z m100 -10 c-3 -3 -12 -4 -19 -1 -8 3 -5 6 6 6 11 1 17
-2 13 -5z m-1962 -14 c3 -5 1 -10 -4 -10 -6 0 -11 5 -11 10 0 6 2 10 4 10 3 0
8 -4 11 -10z m2028 3 c-7 -2 -19 -2 -25 0 -7 3 -2 5 12 5 14 0 19 -2 13 -5z
m-2238 -13 c3 -6 -1 -7 -9 -4 -18 7 -21 14 -7 14 6 0 13 -4 16 -10z m395 0 c0
-5 -2 -10 -4 -10 -3 0 -8 5 -11 10 -3 6 -1 10 4 10 6 0 11 -4 11 -10z m1583
-27 c-7 -2 -19 -2 -25 0 -7 3 -2 5 12 5 14 0 19 -2 13 -5z m95 -10 c-10 -2
-26 -2 -35 0 -10 3 -2 5 17 5 19 0 27 -2 18 -5z m140 -10 c-16 -2 -40 -2 -55
0 -16 2 -3 4 27 4 30 0 43 -2 28 -4z m-66 -60 c-40 -2 -103 -2 -140 0 -37 2
-4 3 73 3 77 0 107 -2 67 -3z m61 -60 c-7 -2 -19 -2 -25 0 -7 3 -2 5 12 5 14
0 19 -2 13 -5z m-110 -10 c-40 -2 -106 -2 -145 0 -40 1 -8 3 72 3 80 0 112 -2
73 -3z m62 -53 c-27 -5 -66 -8 -85 -8 -32 1 -31 2 10 8 25 4 63 7 85 7 38 0
37 0 -10 -7z m-1910 -10 c3 -5 1 -10 -4 -10 -6 0 -11 5 -11 10 0 6 2 10 4 10
3 0 8 -4 11 -10z m1733 -7 c-27 -2 -69 -2 -95 0 -27 2 -5 3 47 3 52 0 74 -1
48 -3z m-1682 -38 c10 -8 14 -15 7 -15 -19 0 -43 11 -43 21 0 13 14 11 36 -6z
m1887 4 c-15 -15 -195 -39 -283 -37 -70 2 -71 2 -15 5 89 4 245 24 269 33 30
12 42 12 29 -1z m-465 -36 c-10 -2 -28 -2 -40 0 -13 2 -5 4 17 4 22 1 32 -1
23 -4z m446 -23 c-15 -15 -148 -39 -246 -44 l-83 -5 80 10 c44 5 114 18 155
28 91 23 108 25 94 11z m-36 -55 c-20 -14 -41 -25 -46 -25 -5 0 -15 -7 -22
-15 -7 -8 -18 -15 -24 -15 -13 0 34 39 49 40 6 0 21 9 35 20 14 11 29 20 35
20 5 0 -7 -11 -27 -25z m-1597 -13 c-7 -2 -18 1 -23 6 -8 8 -4 9 13 5 13 -4
18 -8 10 -11z m1237 11 c-26 -2 -71 -2 -100 0 -29 2 -8 3 47 3 55 0 79 -1 53
-3z m362 -27 c-23 -22 -133 -89 -118 -71 9 10 131 94 138 94 2 1 -7 -10 -20
-23z m-83 8 c-3 -3 -12 -4 -19 -1 -8 3 -5 6 6 6 11 1 17 -2 13 -5z m-127 -30
c-36 -7 -123 -16 -195 -18 l-130 -5 125 9 c69 5 145 14 170 19 25 5 56 9 70 9
14 0 -4 -6 -40 -14z m214 -9 c-4 -8 -9 -15 -13 -15 -4 0 -13 -11 -19 -25 -6
-14 -17 -25 -23 -25 -7 0 -4 9 7 23 l19 22 -22 -18 c-12 -11 -20 -24 -17 -31
6 -15 -137 -153 -250 -241 -95 -74 -276 -186 -332 -207 -19 -6 -34 -16 -34
-20 0 -4 -7 -8 -16 -8 -8 0 -22 -7 -30 -15 -8 -8 -22 -11 -31 -8 -10 4 -14 2
-10 -4 4 -6 0 -14 -9 -17 -8 -3 -12 -2 -9 4 3 6 0 10 -7 10 -7 0 49 29 125 64
75 36 149 74 163 85 35 28 23 27 -24 -2 -37 -23 -110 -55 -82 -37 62 42 154
95 203 117 31 14 57 30 57 35 0 5 -10 2 -22 -6 -12 -9 -26 -16 -31 -16 -17 0
5 20 41 37 20 9 48 28 62 40 14 13 31 21 37 18 7 -2 12 -1 12 3 -3 21 5 30 41
51 22 12 39 25 39 29 -1 4 0 10 1 15 1 4 3 12 4 17 0 6 4 10 9 10 4 0 13 0 20
0 6 0 1 -9 -13 -20 -14 -11 -20 -20 -14 -20 11 0 34 23 49 49 6 11 4 13 -11 7
-21 -7 28 39 90 85 45 33 47 34 40 14z m-119 -5 c-3 -5 -12 -10 -18 -10 -7 0
-6 4 3 10 19 12 23 12 15 0z m-437 -7 c-10 -2 -28 -2 -40 0 -13 2 -5 4 17 4
22 1 32 -1 23 -4z m357 -23 c-27 -12 -43 -12 -25 0 8 5 22 9 30 9 10 0 8 -3
-5 -9z m-85 -26 c-25 -8 -70 -16 -100 -19 -50 -4 -49 -3 19 10 40 8 78 16 85
19 6 2 18 4 26 4 8 0 -5 -6 -30 -14z m110 1 c0 -2 -10 -9 -22 -15 -22 -11 -22
-10 -4 4 21 17 26 19 26 11z m50 1 c0 -2 -22 -18 -50 -35 -61 -38 -65 -33 -7
8 39 28 57 36 57 27z m-377 -33 c-34 -2 -93 -2 -130 0 -37 2 -9 3 62 3 72 0
102 -1 68 -3z m272 -3 c-3 -5 -12 -10 -18 -10 -7 0 -6 4 3 10 19 12 23 12 15
0z m-98 -36 c-3 -3 -12 -4 -19 -1 -8 3 -5 6 6 6 11 1 17 -2 13 -5z m138 -4
c-3 -5 -12 -10 -18 -10 -7 0 -6 4 3 10 19 12 23 12 15 0z m-178 -6 c-3 -3 -12
-4 -19 -1 -8 3 -5 6 6 6 11 1 17 -2 13 -5z m83 -14 c-19 -11 -39 -19 -45 -19
-5 0 6 8 25 19 19 11 40 19 45 19 6 0 -6 -8 -25 -19z m-155 0 c-43 -8 -234
-22 -200 -14 28 6 174 21 210 22 25 0 23 -2 -10 -8z m215 -4 c0 -2 -7 -7 -16
-10 -8 -3 -12 -2 -9 4 6 10 25 14 25 6z m-40 -20 c0 -2 -7 -7 -16 -10 -8 -3
-12 -2 -9 4 6 10 25 14 25 6z m-603 -52 c-3 -3 -12 -4 -19 -1 -8 3 -5 6 6 6
11 1 17 -2 13 -5z m91 -11 c-10 -2 -26 -2 -35 0 -10 3 -2 5 17 5 19 0 27 -2
18 -5z m140 0 c-16 -2 -40 -2 -55 0 -16 2 -3 4 27 4 30 0 43 -2 28 -4z m252
-13 c-8 -5 -22 -9 -30 -9 -10 0 -8 3 5 9 27 12 43 12 25 0z m-591 -26 c9 -8
-45 -2 -64 6 -14 7 -8 8 20 3 22 -3 42 -7 44 -9z m466 -10 c-27 -7 -63 -13
-80 -13 -20 1 -10 5 30 14 81 17 112 17 50 -1z m-300 -13 c35 -8 36 -9 10 -9
-16 0 -50 3 -75 7 -42 8 -43 9 -10 9 19 1 53 -3 75 -7z m158 -8 c-13 -2 -33
-2 -45 0 -13 2 -3 4 22 4 25 0 35 -2 23 -4z m147 -23 c-8 -5 -19 -10 -25 -10
-5 0 -3 5 5 10 8 5 20 10 25 10 6 0 3 -5 -5 -10z m-387 -87 c-7 -2 -19 -2 -25
0 -7 3 -2 5 12 5 14 0 19 -2 13 -5z m67 -157 c0 -2 -7 -7 -16 -10 -8 -3 -12
-2 -9 4 6 10 25 14 25 6z m-36 -34 c5 -8 1 -9 -74 -16 l-45 -5 44 9 c24 5 46
12 49 15 8 7 20 6 26 -3z m-113 -53 c-24 -11 -46 -17 -49 -15 -6 6 58 34 78
34 8 1 -5 -8 -29 -19z m-3037 -453 c11 -6 29 -19 39 -28 38 -33 635 -396 914
-555 106 -61 323 -171 459 -234 38 -17 103 -47 144 -66 86 -39 444 -182 635
-253 72 -27 231 -86 355 -131 267 -98 287 -106 295 -119 10 -17 -61 -12 -214
15 -186 33 -306 63 -521 132 -164 52 -381 134 -404 152 -15 11 -321 151 -332
151 -5 1 -27 9 -49 20 -22 11 -43 19 -48 20 -25 1 -421 207 -510 265 -59 39
-178 117 -265 174 -86 57 -192 124 -235 150 -136 80 -260 152 -317 184 -30 16
-61 34 -68 40 -7 6 -41 20 -75 32 l-62 21 3 64 c2 36 8 70 13 76 9 11 114 -37
243 -110z m1149 -66 c-10 -42 -15 -111 -15 -195 0 -150 13 -191 84 -263 45
-46 87 -61 233 -87 50 -8 131 -24 180 -35 50 -10 169 -33 265 -50 235 -42 556
-105 715 -141 136 -31 283 -56 525 -89 165 -23 218 -34 233 -49 30 -30 -192
-25 -373 7 -58 11 -168 27 -245 36 -325 40 -570 77 -653 101 -31 9 -84 33
-117 54 -59 36 -98 49 -225 71 -36 6 -87 15 -115 20 -27 5 -106 16 -175 25
-255 33 -249 31 -379 95 -143 70 -219 120 -313 206 -63 57 -128 104 -253 182
-27 17 -62 42 -77 55 l-28 24 53 11 c139 30 313 50 511 58 105 5 162 11 170
20 6 6 12 11 13 10 1 -1 -5 -31 -14 -66z m-759 -115 c11 -8 16 -15 10 -15 -5
0 -18 7 -28 15 -11 8 -16 15 -10 15 5 0 18 -7 28 -15z m-366 -49 c53 -27 85
-56 61 -56 -17 0 -119 62 -119 72 0 12 6 10 58 -16z m-130 -6 c58 -8 137 -46
175 -85 7 -6 82 -58 167 -115 85 -58 157 -107 160 -110 3 -3 21 -17 40 -30 19
-13 50 -37 68 -54 30 -27 33 -29 30 -10 -4 28 19 54 48 54 25 0 94 -62 94 -84
0 -16 -95 -19 -123 -4 -16 8 -15 5 4 -21 23 -32 23 -32 4 -67 -49 -92 -282
-249 -465 -312 -121 -43 -222 -72 -231 -67 -4 3 -20 -2 -33 -10 -16 -11 -45
-17 -78 -16 -29 0 -100 1 -157 1 -70 1 -110 6 -125 15 -13 9 -27 11 -35 6 -8
-5 -24 -7 -37 -5 -12 2 -26 0 -29 -6 -3 -6 -16 -8 -28 -5 -12 2 -41 7 -64 9
-23 2 -46 7 -52 10 -5 4 -12 2 -16 -3 -3 -6 -60 -10 -128 -10 -67 1 -151 -5
-187 -12 -103 -21 -580 -10 -735 17 -23 4 -26 3 -15 -5 31 -22 -24 -17 -140
10 -118 29 -164 45 -168 59 -3 9 1 11 14 6 36 -14 136 -38 140 -33 3 2 -24 12
-58 21 -35 10 -86 33 -115 51 l-52 34 4 52 c4 49 33 99 57 99 4 0 25 -15 45
-34 46 -41 61 -48 142 -75 152 -50 478 -92 716 -92 165 0 342 36 473 96 91 43
138 75 122 85 -9 6 -9 13 -1 28 6 12 10 25 9 30 -2 5 30 44 71 88 40 43 97
113 126 154 29 41 65 86 79 99 l26 24 1 -24 c0 -32 33 47 60 149 11 42 25 82
31 89 12 15 77 16 166 3z m5987 -11 c11 -17 -1 -21 -15 -4 -8 9 -8 15 -2 15 6
0 14 -5 17 -11z m-3388 -61 c-3 -8 -6 -5 -6 6 -1 11 2 17 5 13 3 -3 4 -12 1
-19z m-4534 -37 c-2 -10 -14 -27 -26 -39 -12 -11 -33 -31 -47 -45 -14 -13 -42
-45 -62 -71 -20 -26 -63 -66 -95 -88 -32 -22 -91 -70 -130 -105 -80 -71 -88
-68 -61 22 6 22 12 42 12 45 1 3 11 21 23 41 20 32 127 131 128 119 1 -3 18
12 39 33 22 20 43 37 49 37 8 0 55 22 131 63 34 18 46 15 39 -12z m3030 -206
c45 -25 76 -45 70 -45 -18 0 -103 43 -103 52 0 4 -6 8 -12 8 -14 1 -57 30 -45
30 4 0 44 -20 90 -45z m-359 -234 c3 -5 -3 -11 -14 -14 -13 -3 -20 0 -20 9 0
15 26 19 34 5z m16 -116 c0 -8 -14 -39 -30 -69 -22 -38 -29 -61 -25 -82 5 -27
-5 -39 -130 -157 -147 -140 -205 -180 -329 -227 -216 -83 -568 -134 -620 -90
-8 5 -16 28 -20 50 -4 29 -15 46 -40 65 -19 15 -33 32 -30 40 8 20 111 62 210
86 125 29 373 113 569 192 16 7 118 56 225 109 107 53 201 97 208 97 6 1 12
-6 12 -14z m-3109 -34 c21 -17 45 -31 55 -31 21 0 114 -70 114 -86 0 -12 90
-58 210 -107 85 -34 314 -94 396 -103 83 -10 75 -24 -13 -25 -43 0 -89 -2
-103 -4 -14 -2 -79 -9 -145 -15 -66 -6 -151 -20 -190 -31 -144 -41 -187 -37
-330 33 -163 81 -257 202 -247 321 1 11 10 17 27 17 13 0 28 8 33 17 13 23 91
53 126 48 16 -2 46 -17 67 -34z m5149 -141 c343 -19 831 -71 890 -94 8 -4 26
-28 40 -54 38 -72 125 -153 209 -192 63 -30 70 -35 49 -41 -13 -3 -73 -2 -133
2 -287 22 -596 74 -770 129 -106 35 -603 244 -620 261 -7 9 12 10 70 5 44 -3
163 -10 265 -16z m1686 -264 c96 -45 74 -75 -62 -84 -84 -5 -138 2 -132 17 7
20 104 91 123 91 11 0 43 -11 71 -24z"/>
<path d="M7725 4270 c-3 -5 -2 -10 4 -10 5 0 13 5 16 10 3 6 2 10 -4 10 -5 0
-13 -4 -16 -10z"/>
<path d="M7619 4153 c-13 -16 -12 -17 4 -4 16 13 21 21 13 21 -2 0 -10 -8 -17
-17z"/>
<path d="M1868 2103 c7 -3 16 -2 19 1 4 3 -2 6 -13 5 -11 0 -14 -3 -6 -6z"/>
<path d="M7853 8813 c9 -2 25 -2 35 0 9 3 1 5 -18 5 -19 0 -27 -2 -17 -5z"/>
<path d="M7741 8801 c-8 -5 5 -7 35 -4 27 3 51 7 53 9 9 8 -75 3 -88 -5z"/>
<path d="M7240 6875 c-35 -36 -60 -65 -54 -65 5 0 27 18 49 40 21 21 42 37 46
35 4 -3 10 3 14 13 8 18 15 42 11 42 -1 0 -31 -29 -66 -65z"/>
<path d="M7200 6880 c-12 -16 -19 -30 -16 -30 2 0 14 14 26 30 12 17 19 30 16
30 -2 0 -14 -13 -26 -30z"/>
<path d="M1817 6690 c-44 -13 -98 -59 -113 -96 -24 -56 -17 -166 16 -293 17
-62 35 -136 41 -165 5 -28 12 -60 15 -71 l5 -20 -12 20 c-7 11 -26 56 -41 100
l-29 80 2 -50 c1 -73 1 -74 -25 -32 -15 24 -25 33 -28 25 -3 -7 -37 -31 -76
-52 -91 -50 -161 -112 -210 -186 -37 -54 -40 -63 -31 -94 14 -52 65 -136 82
-136 3 0 8 17 12 37 11 58 36 113 52 113 39 0 112 -134 97 -175 -4 -8 -2 -15
3 -15 16 0 30 -40 68 -196 82 -335 258 -647 576 -1024 99 -118 271 -289 385
-384 33 -28 98 -83 145 -121 82 -69 279 -220 363 -279 22 -16 62 -45 89 -65
l47 -35 0 -93 c0 -62 -4 -93 -11 -93 -13 0 -92 55 -244 169 -144 107 -423 348
-545 471 -299 298 -632 714 -750 938 -18 34 -35 61 -37 58 -2 -2 5 -20 17 -40
11 -20 20 -43 20 -51 0 -8 4 -15 9 -15 5 0 11 -8 14 -17 8 -24 40 -77 50 -81
4 -2 7 -8 7 -13 0 -10 97 -159 110 -169 3 -3 17 -21 30 -40 13 -19 27 -37 30
-40 3 -3 36 -44 73 -92 37 -47 73 -92 79 -100 7 -7 26 -29 42 -48 25 -32 301
-325 352 -375 177 -173 368 -346 438 -395 12 -8 31 -24 44 -35 13 -11 60 -46
105 -77 121 -84 139 -99 134 -112 -3 -7 3 -18 13 -24 16 -10 19 -6 24 36 3 26
8 85 11 132 7 121 14 332 9 290 -7 -61 -14 -80 -28 -80 -12 0 -169 118 -186
139 -3 4 -46 41 -95 83 -158 132 -569 549 -664 673 -115 149 -148 194 -218
300 -187 281 -233 375 -276 565 -26 112 -28 178 -8 198 24 23 37 49 45 92 3
19 17 47 31 62 29 31 46 29 143 -19 94 -46 196 -32 239 34 l15 22 -38 -19
c-51 -26 -113 -34 -164 -20 -126 34 -300 316 -341 554 -25 146 8 243 95 286
59 28 65 28 216 -15 50 -15 -42 54 -94 70 -54 16 -86 18 -129 5z m-107 -900
c0 -5 -2 -10 -4 -10 -3 0 -8 5 -11 10 -3 6 -1 10 4 10 6 0 11 -4 11 -10z m80
-141 c0 -17 -32 -22 -41 -8 -14 22 -11 27 16 21 14 -2 25 -8 25 -13z m-93 -20
c7 -13 13 -42 13 -64 0 -34 -2 -37 -14 -25 -16 17 -36 75 -36 102 0 26 22 18
37 -13z m303 -681 c44 -61 194 -261 255 -339 17 -21 47 -58 68 -81 21 -24 75
-86 120 -138 45 -52 156 -168 247 -259 91 -91 156 -158 145 -150 -133 97 -357
313 -510 489 -145 169 -385 501 -385 535 0 17 20 -3 60 -57z"/>
<path d="M7099 6653 l-24 -28 28 24 c15 14 27 26 27 28 0 8 -8 1 -31 -24z"/>
<path d="M7079 6593 l-24 -28 28 24 c15 14 27 26 27 28 0 8 -8 1 -31 -24z"/>
<path d="M7169 6593 c-13 -16 -12 -17 4 -4 9 7 17 15 17 17 0 8 -8 3 -21 -13z"/>
<path d="M1578 6556 c-104 -45 -156 -77 -198 -121 l-35 -37 36 24 c19 13 87
48 151 77 63 30 120 62 127 73 15 24 8 23 -81 -16z"/>
<path d="M1950 6560 c0 -5 7 -10 16 -10 8 0 12 5 9 10 -3 6 -10 10 -16 10 -5
0 -9 -4 -9 -10z"/>
<path d="M1910 6550 c0 -5 7 -10 16 -10 8 0 12 5 9 10 -3 6 -10 10 -16 10 -5
0 -9 -4 -9 -10z"/>
<path d="M2002 6544 c-11 -12 -9 -14 8 -14 11 0 20 4 20 9 0 17 -15 19 -28 5z"/>
<path d="M1875 6530 c3 -5 11 -10 16 -10 6 0 7 5 4 10 -3 6 -11 10 -16 10 -6
0 -7 -4 -4 -10z"/>
<path d="M1961 6521 c-7 -5 -9 -11 -4 -14 5 -3 15 -2 22 2 7 5 9 11 4 14 -5 3
-15 2 -22 -2z"/>
<path d="M2050 6520 c0 -5 7 -10 16 -10 8 0 12 5 9 10 -3 6 -10 10 -16 10 -5
0 -9 -4 -9 -10z"/>
<path d="M1835 6510 c3 -5 8 -10 11 -10 2 0 4 5 4 10 0 6 -5 10 -11 10 -5 0
-7 -4 -4 -10z"/>
<path d="M1910 6496 c0 -9 5 -16 10 -16 6 0 10 4 10 9 0 6 -4 13 -10 16 -5 3
-10 -1 -10 -9z"/>
<path d="M1810 6490 c0 -5 5 -10 10 -10 6 0 10 5 10 10 0 6 -4 10 -10 10 -5 0
-10 -4 -10 -10z"/>
<path d="M2010 6490 c0 -5 7 -10 16 -10 8 0 12 5 9 10 -3 6 -10 10 -16 10 -5
0 -9 -4 -9 -10z"/>
<path d="M1870 6476 c0 -9 5 -16 10 -16 6 0 10 4 10 9 0 6 -4 13 -10 16 -5 3
-10 -1 -10 -9z"/>
<path d="M7099 6473 c-13 -16 -12 -17 4 -4 16 13 21 21 13 21 -2 0 -10 -8 -17
-17z"/>
<path d="M1980 6470 c0 -5 5 -10 10 -10 6 0 10 5 10 10 0 6 -4 10 -10 10 -5 0
-10 -4 -10 -10z"/>
<path d="M1840 6456 c0 -9 5 -16 10 -16 6 0 10 4 10 9 0 6 -4 13 -10 16 -5 3
-10 -1 -10 -9z"/>
<path d="M1940 6456 c0 -8 4 -17 9 -21 6 -3 9 4 8 15 -1 23 -17 28 -17 6z"/>
<path d="M1800 6445 c0 -8 5 -15 10 -15 6 0 10 7 10 15 0 8 -4 15 -10 15 -5 0
-10 -7 -10 -15z"/>
<path d="M2050 6451 c0 -6 5 -13 10 -16 6 -3 10 1 10 9 0 9 -4 16 -10 16 -5 0
-10 -4 -10 -9z"/>
<path d="M2097 6449 c8 -8 16 -8 30 0 16 9 14 10 -11 11 -22 0 -27 -3 -19 -11z"/>
<path d="M1895 6429 c-9 -14 -2 -20 14 -10 8 6 9 11 3 15 -6 3 -14 1 -17 -5z"/>
<path d="M2010 6430 c0 -5 7 -10 16 -10 8 0 12 5 9 10 -3 6 -10 10 -16 10 -5
0 -9 -4 -9 -10z"/>
<path d="M1975 6420 c-8 -13 -1 -24 14 -19 6 3 7 10 2 18 -6 10 -10 10 -16 1z"/>
<path d="M2150 6416 c0 -9 5 -16 10 -16 6 0 10 4 10 9 0 6 -4 13 -10 16 -5 3
-10 -1 -10 -9z"/>
<path d="M2125 6410 c3 -5 8 -10 11 -10 2 0 4 5 4 10 0 6 -5 10 -11 10 -5 0
-7 -4 -4 -10z"/>
<path d="M1804 6399 c-3 -6 -1 -16 5 -22 8 -8 11 -5 11 11 0 24 -5 28 -16 11z"/>
<path d="M1850 6395 c0 -8 5 -15 10 -15 6 0 10 7 10 15 0 8 -4 15 -10 15 -5 0
-10 -7 -10 -15z"/>
<path d="M1936 6402 c-3 -6 -1 -14 5 -17 15 -10 25 3 12 16 -7 7 -13 7 -17 1z"/>
<path d="M2090 6406 c0 -2 7 -9 15 -16 13 -11 14 -10 9 4 -5 14 -24 23 -24 12z"/>
<path d="M2062 6388 c2 -6 10 -14 16 -16 7 -2 10 2 6 12 -7 18 -28 22 -22 4z"/>
<path d="M2020 6366 c0 -9 5 -16 10 -16 6 0 10 4 10 9 0 6 -4 13 -10 16 -5 3
-10 -1 -10 -9z"/>
<path d="M1900 6354 c0 -8 5 -12 10 -9 6 4 8 11 5 16 -9 14 -15 11 -15 -7z"/>
<path d="M1870 6350 c0 -5 5 -10 11 -10 5 0 7 5 4 10 -3 6 -8 10 -11 10 -2 0
-4 -4 -4 -10z"/>
<path d="M1980 6345 c0 -8 5 -15 10 -15 6 0 10 7 10 15 0 8 -4 15 -10 15 -5 0
-10 -7 -10 -15z"/>
<path d="M2140 6353 c0 -14 19 -38 25 -32 8 8 -5 39 -16 39 -5 0 -9 -3 -9 -7z"/>
<path d="M2185 6340 c3 -5 8 -10 11 -10 2 0 4 5 4 10 0 6 -5 10 -11 10 -5 0
-7 -4 -4 -10z"/>
<path d="M2096 6326 c3 -9 11 -16 16 -16 13 0 5 23 -10 28 -7 2 -10 -2 -6 -12z"/>
<path d="M1935 6320 c3 -5 10 -10 16 -10 5 0 9 5 9 10 0 6 -7 10 -16 10 -8 0
-12 -4 -9 -10z"/>
<path d="M6989 6303 l-24 -26 33 23 c33 25 38 30 24 30 -5 0 -19 -12 -33 -27z"/>
<path d="M1816 6305 c4 -8 10 -15 15 -15 5 0 9 7 9 15 0 8 -7 15 -15 15 -9 0
-12 -6 -9 -15z"/>
<path d="M1860 6310 c0 -5 5 -10 10 -10 6 0 10 5 10 10 0 6 -4 10 -10 10 -5 0
-10 -4 -10 -10z"/>
<path d="M1900 6310 c0 -5 5 -10 11 -10 5 0 7 5 4 10 -3 6 -8 10 -11 10 -2 0
-4 -4 -4 -10z"/>
<path d="M2050 6300 c0 -5 7 -10 15 -10 8 0 15 5 15 10 0 6 -7 10 -15 10 -8 0
-15 -4 -15 -10z"/>
<path d="M3254 6286 c-11 -28 71 -166 98 -166 17 0 6 68 -20 120 -29 57 -65
79 -78 46z"/>
<path d="M2012 6281 c2 -7 7 -12 11 -12 12 1 9 15 -3 20 -7 2 -11 -2 -8 -8z"/>
<path d="M1915 6270 c-3 -5 -2 -10 4 -10 5 0 13 5 16 10 3 6 2 10 -4 10 -5 0
-13 -4 -16 -10z"/>
<path d="M2160 6270 c0 -5 5 -10 11 -10 5 0 7 5 4 10 -3 6 -8 10 -11 10 -2 0
-4 -4 -4 -10z"/>
<path d="M2196 6267 c3 -10 9 -15 12 -12 3 3 0 11 -7 18 -10 9 -11 8 -5 -6z"/>
<path d="M1880 6260 c0 -5 5 -10 11 -10 5 0 7 5 4 10 -3 6 -8 10 -11 10 -2 0
-4 -4 -4 -10z"/>
<path d="M1970 6260 c0 -5 7 -10 16 -10 8 0 12 5 9 10 -3 6 -10 10 -16 10 -5
0 -9 -4 -9 -10z"/>
<path d="M2122 6259 c2 -7 10 -15 17 -17 8 -3 12 1 9 9 -2 7 -10 15 -17 17 -8
3 -12 -1 -9 -9z"/>
<path d="M1830 6251 c0 -6 5 -13 10 -16 6 -3 10 1 10 9 0 9 -4 16 -10 16 -5 0
-10 -4 -10 -9z"/>
<path d="M2090 6241 c0 -6 5 -13 10 -16 6 -3 10 1 10 9 0 9 -4 16 -10 16 -5 0
-10 -4 -10 -9z"/>
<path d="M1940 6230 c0 -5 5 -10 11 -10 5 0 7 5 4 10 -3 6 -8 10 -11 10 -2 0
-4 -4 -4 -10z"/>
<path d="M2052 6220 c15 -24 33 -27 24 -4 -3 9 -6 18 -6 20 0 2 -7 4 -15 4
-13 0 -13 -3 -3 -20z"/>
<path d="M1851 6211 c-8 -6 -9 -11 -3 -15 6 -3 14 -1 17 5 9 14 2 20 -14 10z"/>
<path d="M1900 6210 c0 -5 5 -10 10 -10 6 0 10 5 10 10 0 6 -4 10 -10 10 -5 0
-10 -4 -10 -10z"/>
<path d="M2006 6206 c7 -17 34 -30 34 -16 0 6 -5 10 -11 10 -5 0 -7 5 -4 10 3
6 -1 10 -9 10 -9 0 -13 -6 -10 -14z"/>
<path d="M2210 6210 c0 -5 5 -10 10 -10 6 0 10 5 10 10 0 6 -4 10 -10 10 -5 0
-10 -4 -10 -10z"/>
<path d="M2175 6200 c3 -5 8 -10 11 -10 2 0 4 5 4 10 0 6 -5 10 -11 10 -5 0
-7 -4 -4 -10z"/>
<path d="M7130 6184 c-36 -14 -77 -29 -91 -33 -46 -15 -90 -42 -84 -51 3 -6
-1 -7 -9 -4 -11 4 -16 0 -16 -12 0 -12 -3 -15 -8 -8 -5 9 -19 6 -49 -8 -24
-11 -43 -24 -43 -29 0 -5 -6 -6 -13 -3 -7 2 -21 -3 -32 -11 -19 -16 -19 -16 3
-5 12 6 22 7 22 2 0 -5 -22 -19 -50 -32 -27 -13 -50 -27 -50 -32 0 -4 33 9 73
29 81 42 115 57 104 47 -9 -9 -31 -22 -106 -62 -108 -57 -65 -43 78 26 76 37
136 71 133 76 -3 5 0 6 6 2 6 -3 68 11 138 31 87 25 120 39 105 43 -12 3 -22
8 -22 12 -1 18 -12 48 -18 47 -3 0 -35 -11 -71 -25z"/>
<path d="M1960 6191 c0 -10 30 -24 37 -17 3 3 2 9 -2 15 -8 13 -35 15 -35 2z"/>
<path d="M2132 6188 c2 -6 10 -14 16 -16 7 -2 10 2 6 12 -7 18 -28 22 -22 4z"/>
<path d="M1920 6165 c0 -8 5 -15 10 -15 6 0 10 7 10 15 0 8 -4 15 -10 15 -5 0
-10 -7 -10 -15z"/>
<path d="M2100 6166 c0 -9 5 -16 10 -16 6 0 10 4 10 9 0 6 -4 13 -10 16 -5 3
-10 -1 -10 -9z"/>
<path d="M2250 6168 c0 -9 5 -20 10 -23 13 -8 13 5 0 25 -8 13 -10 13 -10 -2z"/>
<path d="M1867 6151 c3 -12 10 -21 15 -21 13 0 6 32 -9 37 -7 3 -9 -3 -6 -16z"/>
<path d="M2052 6149 c2 -7 10 -15 17 -17 8 -3 12 1 9 9 -2 7 -10 15 -17 17 -8
3 -12 -1 -9 -9z"/>
<path d="M2212 6148 c2 -6 10 -14 16 -16 7 -2 10 2 6 12 -7 18 -28 22 -22 4z"/>
<path d="M2017 6143 c-7 -11 10 -40 18 -31 4 4 3 14 -3 24 -5 9 -12 12 -15 7z"/>
<path d="M2170 6125 c7 -8 17 -15 22 -15 6 0 5 7 -2 15 -7 8 -17 15 -22 15 -6
0 -5 -7 2 -15z"/>
<path d="M1970 6120 c0 -5 5 -10 10 -10 6 0 10 5 10 10 0 6 -4 10 -10 10 -5 0
-10 -4 -10 -10z"/>
<path d="M1930 6113 c0 -5 5 -15 10 -23 8 -12 10 -11 10 8 0 12 -4 22 -10 22
-5 0 -10 -3 -10 -7z"/>
<path d="M2122 6111 c2 -7 7 -12 11 -12 12 1 9 15 -3 20 -7 2 -11 -2 -8 -8z"/>
<path d="M1896 6088 c8 -27 12 -33 19 -27 7 8 -7 49 -17 49 -5 0 -6 -10 -2
-22z"/>
<path d="M6810 6095 c-11 -13 -10 -14 4 -9 9 3 16 10 16 15 0 13 -6 11 -20 -6z"/>
<path d="M2090 6086 c0 -9 5 -16 10 -16 6 0 10 4 10 9 0 6 -4 13 -10 16 -5 3
-10 -1 -10 -9z"/>
<path d="M2240 6090 c0 -5 5 -10 11 -10 5 0 7 5 4 10 -3 6 -8 10 -11 10 -2 0
-4 -4 -4 -10z"/>
<path d="M6854 6084 c-18 -14 -18 -15 4 -4 12 6 22 13 22 15 0 8 -5 6 -26 -11z"/>
<path d="M2050 6070 c0 -5 5 -10 11 -10 5 0 7 5 4 10 -3 6 -8 10 -11 10 -2 0
-4 -4 -4 -10z"/>
<path d="M2200 6070 c0 -5 5 -10 10 -10 6 0 10 5 10 10 0 6 -4 10 -10 10 -5 0
-10 -4 -10 -10z"/>
<path d="M2160 6061 c0 -5 7 -15 17 -22 15 -13 15 -12 4 9 -12 23 -21 28 -21
13z"/>
<path d="M2000 6056 c0 -2 7 -9 15 -16 12 -10 15 -10 15 4 0 9 -7 16 -15 16
-8 0 -15 -2 -15 -4z"/>
<path d="M1960 6042 c0 -5 7 -13 16 -16 10 -4 14 -1 12 6 -5 15 -28 23 -28 10z"/>
<path d="M2120 6042 c0 -12 19 -26 26 -19 2 2 -2 10 -11 17 -9 8 -15 8 -15 2z"/>
<path d="M2265 6040 c3 -5 8 -10 11 -10 2 0 4 5 4 10 0 6 -5 10 -11 10 -5 0
-7 -4 -4 -10z"/>
<path d="M1931 6024 c0 -11 3 -14 6 -6 3 7 2 16 -1 19 -3 4 -6 -2 -5 -13z"/>
<path d="M2080 6028 c0 -9 5 -20 10 -23 13 -8 13 5 0 25 -8 13 -10 13 -10 -2z"/>
<path d="M2230 6030 c0 -5 5 -10 10 -10 6 0 10 5 10 10 0 6 -4 10 -10 10 -5 0
-10 -4 -10 -10z"/>
<path d="M2196 6012 c-3 -6 -1 -14 5 -17 15 -10 25 3 12 16 -7 7 -13 7 -17 1z"/>
<path d="M2042 5998 c2 -6 10 -14 16 -16 7 -2 10 2 6 12 -7 18 -28 22 -22 4z"/>
<path d="M6735 6000 c-3 -5 -2 -10 4 -10 5 0 13 5 16 10 3 6 2 10 -4 10 -5 0
-13 -4 -16 -10z"/>
<path d="M2260 5990 c0 -5 5 -10 10 -10 6 0 10 5 10 10 0 6 -4 10 -10 10 -5 0
-10 -4 -10 -10z"/>
<path d="M1960 5976 c0 -8 4 -17 9 -20 5 -4 7 3 4 14 -6 23 -13 26 -13 6z"/>
<path d="M2006 5981 c-4 -5 -2 -12 3 -15 5 -4 12 -2 15 3 4 5 2 12 -3 15 -5 4
-12 2 -15 -3z"/>
<path d="M2150 5980 c0 -5 5 -10 10 -10 6 0 10 5 10 10 0 6 -4 10 -10 10 -5 0
-10 -4 -10 -10z"/>
<path d="M2110 5964 c0 -8 5 -12 10 -9 6 4 8 11 5 16 -9 14 -15 11 -15 -7z"/>
<path d="M2220 5955 c0 -8 5 -15 10 -15 6 0 10 7 10 15 0 8 -4 15 -10 15 -5 0
-10 -7 -10 -15z"/>
<path d="M2180 5941 c0 -6 5 -13 10 -16 6 -3 10 1 10 9 0 9 -4 16 -10 16 -5 0
-10 -4 -10 -9z"/>
<path d="M6664 5934 c-18 -14 -18 -14 6 -3 31 14 36 19 24 19 -6 0 -19 -7 -30
-16z"/>
<path d="M2030 5929 c0 -5 5 -7 10 -4 6 3 10 8 10 11 0 2 -4 4 -10 4 -5 0 -10
-5 -10 -11z"/>
<path d="M2125 5930 c-3 -5 1 -10 9 -10 9 0 16 5 16 10 0 6 -4 10 -9 10 -6 0
-13 -4 -16 -10z"/>
<path d="M2075 5920 c-3 -5 -1 -10 4 -10 6 0 11 5 11 10 0 6 -2 10 -4 10 -3 0
-8 -4 -11 -10z"/>
<path d="M6620 5910 c-9 -6 -10 -10 -3 -10 6 0 15 5 18 10 8 12 4 12 -15 0z"/>
<path d="M2020 5896 c0 -2 8 -10 18 -17 15 -13 16 -12 3 4 -13 16 -21 21 -21
13z"/>
<path d="M2180 5880 c0 -5 5 -10 10 -10 6 0 10 5 10 10 0 6 -4 10 -10 10 -5 0
-10 -4 -10 -10z"/>
<path d="M2070 5870 c0 -5 5 -10 10 -10 6 0 10 5 10 10 0 6 -4 10 -10 10 -5 0
-10 -4 -10 -10z"/>
<path d="M2110 5870 c0 -5 5 -10 10 -10 6 0 10 5 10 10 0 6 -4 10 -10 10 -5 0
-10 -4 -10 -10z"/>
<path d="M6525 5810 c-3 -6 1 -7 9 -4 18 7 21 14 7 14 -6 0 -13 -4 -16 -10z"/>
<path d="M6370 5670 c-13 -8 -12 -10 3 -10 9 0 17 5 17 10 0 12 -1 12 -20 0z"/>
<path d="M6330 5649 c0 -5 5 -7 10 -4 6 3 10 8 10 11 0 2 -4 4 -10 4 -5 0 -10
-5 -10 -11z"/>
<path d="M3120 5124 c0 -3 5 -26 11 -52 11 -52 24 -110 38 -174 5 -24 18 -88
28 -143 9 -55 19 -89 21 -77 5 34 -82 452 -94 452 -2 0 -4 -3 -4 -6z"/>
<path d="M5518 5123 c7 -3 16 -2 19 1 4 3 -2 6 -13 5 -11 0 -14 -3 -6 -6z"/>
<path d="M1620 5118 c0 -11 30 -78 35 -78 3 0 -2 17 -10 37 -15 36 -25 52 -25
41z"/>
<path d="M3221 4609 c1 -24 5 -55 9 -69 6 -16 7 -1 3 40 -7 76 -13 93 -12 29z"/>
<path d="M3243 4435 c0 -22 2 -30 4 -17 2 12 2 30 0 40 -3 9 -5 -1 -4 -23z"/>
<path d="M8758 3323 c7 -3 16 -2 19 1 4 3 -2 6 -13 5 -11 0 -14 -3 -6 -6z"/>
<path d="M1935 3050 c-13 -6 -15 -9 -5 -9 8 0 22 4 30 9 18 12 2 12 -25 0z"/>
<path d="M8322 2464 c-2 -20 -12 -62 -22 -93 -24 -66 -25 -83 -4 -56 54 68 83
185 46 185 -13 0 -19 -9 -20 -36z"/>
</g>
</svg>
